# xmcd
#
# Track frame offsets:
#	150
#	19223
#	38749
#	67522
#	98028
#	116416
#	137756
#	156615
#	176247
#	200105
#	212832
#	242655
#	264917
#
# Disc length: 3718 seconds
#
# Revision: 1
# Processed by: cddbd v1.5.2PL0 Copyright (c) Steve Scherf et al.
# Submitted via: audiograbber 1.83.01
#
DISCID=b60e840d
DTITLE=Hank Shizzoe - Headlines
DYEAR=2007
DGENRE=Blues
TTITLE0=Are we there yet
TTITLE1=Hey now say now
TTITLE2=The Farmers song
TTITLE3=49 Days and 50 Nights
TTITLE4=Yea! Heavy and a bottle of bread
TTITLE5=Make the jockey run
TTITLE6=Headline
TTITLE7=Forgive and remember
TTITLE8=Out of control
TTITLE9=Monochrome
TTITLE10=Flash in the pan
TTITLE11=The sailor and the Queen
TTITLE12=Thanks I'm feeling fine
EXTD=www.hankshizzoe.com
EXTT0=
EXTT1=
EXTT2=
EXTT3=
EXTT4=
EXTT5=
EXTT6=
EXTT7=
EXTT8=
EXTT9=
EXTT10=
EXTT11=
EXTT12=
PLAYORDER=
